{
    "asset" : {
        "generator" : "Khronos glTF Blender I/O v1.2.75",
        "version" : "2.0"
    },
    "scene" : 0,
    "scenes" : [
        {
            "name" : "Scene",
            "nodes" : [
                0,
                1,
                3,
                4,
                5,
                6,
                7,
                8,
                9,
                10,
                11,
                12
            ]
        }
    ],
    "nodes" : [
        {
            "mesh" : 0,
            "name" : "Cube",
            "translation" : [
                0,
                0.7917252779006958,
                0
            ]
        },
        {
            "name" : "Light",
            "rotation" : [
                -0.1397257149219513,
                0.7206689119338989,
                -0.6205849051475525,
                0.27565816044807434
            ],
            "translation" : [
                4.076245307922363,
                5.903861999511719,
                -1.0054539442062378
            ]
        },
        {
            "camera" : 0,
            "name" : "Camera_Orientation",
            "rotation" : [
                -0.7071067690849304,
                0,
                0,
                0.7071067690849304
            ]
        },
        {
            "children" : [
                2
            ],
            "name" : "Camera",
            "rotation" : [
                0.45418471097946167,
                0.5156053304672241,
                -0.377085417509079,
                0.6210265755653381
            ],
            "translation" : [
                6.924610137939453,
                3.2273571491241455,
                3.9972949028015137
            ]
        },
        {
            "mesh" : 1,
            "name" : "Plane"
        },
        {
            "mesh" : 2,
            "name" : "Cube.001",
            "scale" : [
                1,
                0.502338707447052,
                1.9138193130493164
            ],
            "translation" : [
                -2.164982795715332,
                0.24530988931655884,
                3.7499892711639404
            ]
        },
        {
            "mesh" : 3,
            "name" : "Cube.002",
            "scale" : [
                1,
                0.3152494430541992,
                1
            ],
            "translation" : [
                -2.1297593116760254,
                0.2814610004425049,
                -0.1245679259300232
            ]
        },
        {
            "mesh" : 4,
            "name" : "Cube.003",
            "scale" : [
                1,
                0.6391346454620361,
                1.7132517099380493
            ],
            "translation" : [
                -4.250827789306641,
                0.30664682388305664,
                -0.2515154480934143
            ]
        },
        {
            "mesh" : 5,
            "name" : "Cube.004",
            "scale" : [
                1,
                -3.775804281234741,
                6.171442031860352
            ],
            "translation" : [
                -6.413207054138184,
                0.30664682388305664,
                4.037849426269531
            ]
        },
        {
            "mesh" : 6,
            "name" : "Plane.001",
            "translation" : [
                0,
                0.0009416924440301955,
                4.5554327964782715
            ]
        },
        {
            "mesh" : 7,
            "name" : "Cube.005",
            "scale" : [
                0.3385738134384155,
                0.3385738134384155,
                0.3385738134384155
            ],
            "translation" : [
                0.9868150353431702,
                0.16308912634849548,
                1.539721965789795
            ]
        },
        {
            "mesh" : 8,
            "name" : "Cube.006",
            "scale" : [
                0.3385738134384155,
                0.3385738134384155,
                0.3385738134384155
            ],
            "translation" : [
                0.9321070313453674,
                -0.06911399960517883,
                2.238940715789795
            ]
        },
        {
            "mesh" : 9,
            "name" : "Cube.007",
            "scale" : [
                0.3385738134384155,
                0.3385738134384155,
                0.3385738134384155
            ],
            "translation" : [
                0.9790897369384766,
                -0.10673021525144577,
                3.0035715103149414
            ]
        }
    ],
    "cameras" : [
        {
            "name" : "Camera",
            "perspective" : {
                "yfov" : 0.39959652046304894,
                "zfar" : 100,
                "znear" : 0.10000000149011612
            },
            "type" : "perspective"
        }
    ],
    "materials" : [
        {
            "doubleSided" : true,
            "emissiveFactor" : [
                0,
                0,
                0
            ],
            "name" : "Material",
            "pbrMetallicRoughness" : {
                "baseColorFactor" : [
                    0.5962008833885193,
                    0.6093984246253967,
                    0.6500041484832764,
                    1
                ],
                "metallicFactor" : 0,
                "roughnessFactor" : 0.5
            }
        },
        {
            "doubleSided" : true,
            "emissiveFactor" : [
                0,
                0,
                0
            ],
            "name" : "Material.003",
            "pbrMetallicRoughness" : {
                "baseColorFactor" : [
                    0.8000000715255737,
                    0.3677199184894562,
                    0.09252224862575531,
                    1
                ],
                "metallicFactor" : 0,
                "roughnessFactor" : 0.8419688940048218
            }
        },
        {
            "doubleSided" : true,
            "emissiveFactor" : [
                0,
                0,
                0
            ],
            "name" : "Material.001",
            "pbrMetallicRoughness" : {
                "baseColorFactor" : [
                    0.22658351063728333,
                    0.13540339469909668,
                    0.06350846588611603,
                    1
                ],
                "metallicFactor" : 0,
                "roughnessFactor" : 0.5
            }
        },
        {
            "doubleSided" : true,
            "emissiveFactor" : [
                0,
                0,
                0
            ],
            "name" : "Material.002",
            "pbrMetallicRoughness" : {
                "baseColorFactor" : [
                    0.6803359389305115,
                    0.9550883769989014,
                    0.8731489181518555,
                    1
                ],
                "metallicFactor" : 0,
                "roughnessFactor" : 0.5
            }
        },
        {
            "doubleSided" : true,
            "emissiveFactor" : [
                0,
                0,
                0
            ],
            "name" : "Material.004",
            "pbrMetallicRoughness" : {
                "baseColorFactor" : [
                    0.2990771234035492,
                    0.8000000715255737,
                    0.1869891732931137,
                    1
                ],
                "metallicFactor" : 0,
                "roughnessFactor" : 0.5
            }
        },
        {
            "doubleSided" : true,
            "emissiveFactor" : [
                0,
                0,
                0
            ],
            "name" : "Material.005",
            "pbrMetallicRoughness" : {
                "baseColorFactor" : [
                    0.8000000715255737,
                    0.14671912789344788,
                    0.5645751357078552,
                    1
                ],
                "metallicFactor" : 0,
                "roughnessFactor" : 0.5
            }
        },
        {
            "doubleSided" : true,
            "emissiveFactor" : [
                0,
                0,
                0
            ],
            "name" : "Material.006",
            "pbrMetallicRoughness" : {
                "baseColorFactor" : [
                    0.8000000715255737,
                    0.017954936251044273,
                    0.03322284296154976,
                    1
                ],
                "metallicFactor" : 0,
                "roughnessFactor" : 0.5
            }
        },
        {
            "doubleSided" : true,
            "emissiveFactor" : [
                0,
                0,
                0
            ],
            "name" : "Material.007",
            "pbrMetallicRoughness" : {
                "baseColorFactor" : [
                    0.8000000715255737,
                    0.017954936251044273,
                    0.03322284296154976,
                    1
                ],
                "metallicFactor" : 0,
                "roughnessFactor" : 0.5
            }
        },
        {
            "doubleSided" : true,
            "emissiveFactor" : [
                0,
                0,
                0
            ],
            "name" : "Material.008",
            "pbrMetallicRoughness" : {
                "baseColorFactor" : [
                    0.8000000715255737,
                    0.017954936251044273,
                    0.03322284296154976,
                    1
                ],
                "metallicFactor" : 0,
                "roughnessFactor" : 0.5
            }
        }
    ],
    "meshes" : [
        {
            "name" : "Cube",
            "primitives" : [
                {
                    "attributes" : {
                        "POSITION" : 0,
                        "NORMAL" : 1,
                        "TEXCOORD_0" : 2
                    },
                    "indices" : 3,
                    "material" : 0
                }
            ]
        },
        {
            "name" : "Plane",
            "primitives" : [
                {
                    "attributes" : {
                        "POSITION" : 4,
                        "NORMAL" : 5,
                        "TEXCOORD_0" : 6
                    },
                    "indices" : 7,
                    "material" : 1
                }
            ]
        },
        {
            "name" : "Cube.001",
            "primitives" : [
                {
                    "attributes" : {
                        "POSITION" : 8,
                        "NORMAL" : 9,
                        "TEXCOORD_0" : 10
                    },
                    "indices" : 11,
                    "material" : 2
                }
            ]
        },
        {
            "name" : "Cube.002",
            "primitives" : [
                {
                    "attributes" : {
                        "POSITION" : 12,
                        "NORMAL" : 13,
                        "TEXCOORD_0" : 14
                    },
                    "indices" : 15,
                    "material" : 3
                }
            ]
        },
        {
            "name" : "Cube.003",
            "primitives" : [
                {
                    "attributes" : {
                        "POSITION" : 16,
                        "NORMAL" : 17,
                        "TEXCOORD_0" : 18
                    },
                    "indices" : 15,
                    "material" : 4
                }
            ]
        },
        {
            "name" : "Cube.004",
            "primitives" : [
                {
                    "attributes" : {
                        "POSITION" : 19,
                        "NORMAL" : 20,
                        "TEXCOORD_0" : 21
                    },
                    "indices" : 15,
                    "material" : 5
                }
            ]
        },
        {
            "name" : "Plane.001",
            "primitives" : [
                {
                    "attributes" : {
                        "POSITION" : 22,
                        "NORMAL" : 23,
                        "TEXCOORD_0" : 24
                    },
                    "indices" : 25
                }
            ]
        },
        {
            "name" : "Cube.005",
            "primitives" : [
                {
                    "attributes" : {
                        "POSITION" : 26,
                        "NORMAL" : 27,
                        "TEXCOORD_0" : 28
                    },
                    "indices" : 15,
                    "material" : 6
                }
            ]
        },
        {
            "name" : "Cube.006",
            "primitives" : [
                {
                    "attributes" : {
                        "POSITION" : 29,
                        "NORMAL" : 30,
                        "TEXCOORD_0" : 31
                    },
                    "indices" : 15,
                    "material" : 7
                }
            ]
        },
        {
            "name" : "Cube.007",
            "primitives" : [
                {
                    "attributes" : {
                        "POSITION" : 32,
                        "NORMAL" : 33,
                        "TEXCOORD_0" : 34
                    },
                    "indices" : 15,
                    "material" : 8
                }
            ]
        }
    ],
    "accessors" : [
        {
            "bufferView" : 0,
            "componentType" : 5126,
            "count" : 50,
            "max" : [
                1.1495320796966553,
                1.8319272994995117,
                1.1495320796966553
            ],
            "min" : [
                -1.1495320796966553,
                -1,
                -1.1495320796966553
            ],
            "type" : "VEC3"
        },
        {
            "bufferView" : 1,
            "componentType" : 5126,
            "count" : 50,
            "type" : "VEC3"
        },
        {
            "bufferView" : 2,
            "componentType" : 5126,
            "count" : 50,
            "type" : "VEC2"
        },
        {
            "bufferView" : 3,
            "componentType" : 5123,
            "count" : 84,
            "type" : "SCALAR"
        },
        {
            "bufferView" : 4,
            "componentType" : 5126,
            "count" : 4,
            "max" : [
                29.885780334472656,
                0,
                29.885780334472656
            ],
            "min" : [
                -29.885780334472656,
                0,
                -29.885780334472656
            ],
            "type" : "VEC3"
        },
        {
            "bufferView" : 5,
            "componentType" : 5126,
            "count" : 4,
            "type" : "VEC3"
        },
        {
            "bufferView" : 6,
            "componentType" : 5126,
            "count" : 4,
            "type" : "VEC2"
        },
        {
            "bufferView" : 7,
            "componentType" : 5123,
            "count" : 6,
            "type" : "SCALAR"
        },
        {
            "bufferView" : 8,
            "componentType" : 5126,
            "count" : 54,
            "max" : [
                1.0570733547210693,
                1.8913264274597168,
                1.0570733547210693
            ],
            "min" : [
                -1.0570733547210693,
                -1,
                -1.0570733547210693
            ],
            "type" : "VEC3"
        },
        {
            "bufferView" : 9,
            "componentType" : 5126,
            "count" : 54,
            "type" : "VEC3"
        },
        {
            "bufferView" : 10,
            "componentType" : 5126,
            "count" : 54,
            "type" : "VEC2"
        },
        {
            "bufferView" : 11,
            "componentType" : 5123,
            "count" : 96,
            "type" : "SCALAR"
        },
        {
            "bufferView" : 12,
            "componentType" : 5126,
            "count" : 24,
            "max" : [
                1,
                1,
                1
            ],
            "min" : [
                -1,
                -1,
                -1
            ],
            "type" : "VEC3"
        },
        {
            "bufferView" : 13,
            "componentType" : 5126,
            "count" : 24,
            "type" : "VEC3"
        },
        {
            "bufferView" : 14,
            "componentType" : 5126,
            "count" : 24,
            "type" : "VEC2"
        },
        {
            "bufferView" : 15,
            "componentType" : 5123,
            "count" : 36,
            "type" : "SCALAR"
        },
        {
            "bufferView" : 16,
            "componentType" : 5126,
            "count" : 24,
            "max" : [
                1,
                1,
                1
            ],
            "min" : [
                -1,
                -1,
                -1
            ],
            "type" : "VEC3"
        },
        {
            "bufferView" : 17,
            "componentType" : 5126,
            "count" : 24,
            "type" : "VEC3"
        },
        {
            "bufferView" : 18,
            "componentType" : 5126,
            "count" : 24,
            "type" : "VEC2"
        },
        {
            "bufferView" : 19,
            "componentType" : 5126,
            "count" : 24,
            "max" : [
                1,
                1,
                1
            ],
            "min" : [
                -1,
                -1,
                -1
            ],
            "type" : "VEC3"
        },
        {
            "bufferView" : 20,
            "componentType" : 5126,
            "count" : 24,
            "type" : "VEC3"
        },
        {
            "bufferView" : 21,
            "componentType" : 5126,
            "count" : 24,
            "type" : "VEC2"
        },
        {
            "bufferView" : 22,
            "componentType" : 5126,
            "count" : 12,
            "max" : [
                0.5369526147842407,
                0,
                1
            ],
            "min" : [
                -3.178283452987671,
                0,
                -3.47580885887146
            ],
            "type" : "VEC3"
        },
        {
            "bufferView" : 23,
            "componentType" : 5126,
            "count" : 12,
            "type" : "VEC3"
        },
        {
            "bufferView" : 24,
            "componentType" : 5126,
            "count" : 12,
            "type" : "VEC2"
        },
        {
            "bufferView" : 25,
            "componentType" : 5123,
            "count" : 18,
            "type" : "SCALAR"
        },
        {
            "bufferView" : 26,
            "componentType" : 5126,
            "count" : 24,
            "max" : [
                1,
                1,
                1
            ],
            "min" : [
                -1,
                -1,
                -1
            ],
            "type" : "VEC3"
        },
        {
            "bufferView" : 27,
            "componentType" : 5126,
            "count" : 24,
            "type" : "VEC3"
        },
        {
            "bufferView" : 28,
            "componentType" : 5126,
            "count" : 24,
            "type" : "VEC2"
        },
        {
            "bufferView" : 29,
            "componentType" : 5126,
            "count" : 24,
            "max" : [
                1,
                1,
                1
            ],
            "min" : [
                -1,
                -1,
                -1
            ],
            "type" : "VEC3"
        },
        {
            "bufferView" : 30,
            "componentType" : 5126,
            "count" : 24,
            "type" : "VEC3"
        },
        {
            "bufferView" : 31,
            "componentType" : 5126,
            "count" : 24,
            "type" : "VEC2"
        },
        {
            "bufferView" : 32,
            "componentType" : 5126,
            "count" : 24,
            "max" : [
                1,
                1,
                1
            ],
            "min" : [
                -1,
                -1,
                -1
            ],
            "type" : "VEC3"
        },
        {
            "bufferView" : 33,
            "componentType" : 5126,
            "count" : 24,
            "type" : "VEC3"
        },
        {
            "bufferView" : 34,
            "componentType" : 5126,
            "count" : 24,
            "type" : "VEC2"
        }
    ],
    "bufferViews" : [
        {
            "buffer" : 0,
            "byteLength" : 600,
            "byteOffset" : 0
        },
        {
            "buffer" : 0,
            "byteLength" : 600,
            "byteOffset" : 600
        },
        {
            "buffer" : 0,
            "byteLength" : 400,
            "byteOffset" : 1200
        },
        {
            "buffer" : 0,
            "byteLength" : 168,
            "byteOffset" : 1600
        },
        {
            "buffer" : 0,
            "byteLength" : 48,
            "byteOffset" : 1768
        },
        {
            "buffer" : 0,
            "byteLength" : 48,
            "byteOffset" : 1816
        },
        {
            "buffer" : 0,
            "byteLength" : 32,
            "byteOffset" : 1864
        },
        {
            "buffer" : 0,
            "byteLength" : 12,
            "byteOffset" : 1896
        },
        {
            "buffer" : 0,
            "byteLength" : 648,
            "byteOffset" : 1908
        },
        {
            "buffer" : 0,
            "byteLength" : 648,
            "byteOffset" : 2556
        },
        {
            "buffer" : 0,
            "byteLength" : 432,
            "byteOffset" : 3204
        },
        {
            "buffer" : 0,
            "byteLength" : 192,
            "byteOffset" : 3636
        },
        {
            "buffer" : 0,
            "byteLength" : 288,
            "byteOffset" : 3828
        },
        {
            "buffer" : 0,
            "byteLength" : 288,
            "byteOffset" : 4116
        },
        {
            "buffer" : 0,
            "byteLength" : 192,
            "byteOffset" : 4404
        },
        {
            "buffer" : 0,
            "byteLength" : 72,
            "byteOffset" : 4596
        },
        {
            "buffer" : 0,
            "byteLength" : 288,
            "byteOffset" : 4668
        },
        {
            "buffer" : 0,
            "byteLength" : 288,
            "byteOffset" : 4956
        },
        {
            "buffer" : 0,
            "byteLength" : 192,
            "byteOffset" : 5244
        },
        {
            "buffer" : 0,
            "byteLength" : 288,
            "byteOffset" : 5436
        },
        {
            "buffer" : 0,
            "byteLength" : 288,
            "byteOffset" : 5724
        },
        {
            "buffer" : 0,
            "byteLength" : 192,
            "byteOffset" : 6012
        },
        {
            "buffer" : 0,
            "byteLength" : 144,
            "byteOffset" : 6204
        },
        {
            "buffer" : 0,
            "byteLength" : 144,
            "byteOffset" : 6348
        },
        {
            "buffer" : 0,
            "byteLength" : 96,
            "byteOffset" : 6492
        },
        {
            "buffer" : 0,
            "byteLength" : 36,
            "byteOffset" : 6588
        },
        {
            "buffer" : 0,
            "byteLength" : 288,
            "byteOffset" : 6624
        },
        {
            "buffer" : 0,
            "byteLength" : 288,
            "byteOffset" : 6912
        },
        {
            "buffer" : 0,
            "byteLength" : 192,
            "byteOffset" : 7200
        },
        {
            "buffer" : 0,
            "byteLength" : 288,
            "byteOffset" : 7392
        },
        {
            "buffer" : 0,
            "byteLength" : 288,
            "byteOffset" : 7680
        },
        {
            "buffer" : 0,
            "byteLength" : 192,
            "byteOffset" : 7968
        },
        {
            "buffer" : 0,
            "byteLength" : 288,
            "byteOffset" : 8160
        },
        {
            "buffer" : 0,
            "byteLength" : 288,
            "byteOffset" : 8448
        },
        {
            "buffer" : 0,
            "byteLength" : 192,
            "byteOffset" : 8736
        }
    ],
    "buffers" : [
        {
            "byteLength" : 8928,
            "uri" : "data:application/octet-stream;base64,"
        }
    ]
}
